<?xml version="1.0" encoding="UTF-8" standalone="no"?>
<!-- Created with Inkscape (http://www.inkscape.org/) -->

<svg
   width="94.138138mm"
   height="55.445232mm"
   viewBox="0 0 94.13814 55.445231"
   version="1.1"
   id="svg1"
   inkscape:version="1.4.4 (dcaf3e7d9e, 2026-05-05)"
   sodipodi:docname="distributed.svg"
   xmlns:inkscape="http://www.inkscape.org/namespaces/inkscape"
   xmlns:sodipodi="http://sodipodi.sourceforge.net/DTD/sodipodi-0.dtd"
   xmlns="http://www.w3.org/2000/svg"
   xmlns:svg="http://www.w3.org/2000/svg">
  <sodipodi:namedview
     id="namedview1"
     pagecolor="#ffffff"
     bordercolor="#000000"
     borderopacity="0.25"
     inkscape:showpageshadow="2"
     inkscape:pageopacity="0.0"
     inkscape:pagecheckerboard="0"
     inkscape:deskcolor="#d1d1d1"
     inkscape:document-units="mm"
     showguides="true"
     inkscape:zoom="1.7309474"
     inkscape:cx="191.80247"
     inkscape:cy="234.84249"
     inkscape:window-width="1896"
     inkscape:window-height="1034"
     inkscape:window-x="0"
     inkscape:window-y="0"
     inkscape:window-maximized="0"
     inkscape:current-layer="layer1"
     inkscape:lockguides="true" />
  <defs
     id="defs1">
    <rect
       x="-184.30351"
       y="-47.81929"
       width="39.849411"
       height="84.679993"
       id="rect22" />
    <marker
       style="overflow:visible"
       id="marker22"
       refX="0"
       refY="0"
       orient="auto-start-reverse"
       inkscape:stockid="Wide arrow"
       markerWidth="1"
       markerHeight="1"
       viewBox="0 0 1 1"
       inkscape:isstock="true"
       inkscape:collect="always"
       preserveAspectRatio="xMidYMid">
      <path
         style="fill:none;stroke:context-stroke;stroke-width:1;stroke-linecap:butt"
         d="M 3,-3 0,0 3,3"
         transform="rotate(180,0.125,0)"
         sodipodi:nodetypes="ccc"
         id="path22" />
    </marker>
    <marker
       style="overflow:visible"
       id="marker21"
       refX="0"
       refY="0"
       orient="auto-start-reverse"
       inkscape:stockid="Wide arrow"
       markerWidth="1"
       markerHeight="1"
       viewBox="0 0 1 1"
       inkscape:isstock="true"
       inkscape:collect="always"
       preserveAspectRatio="xMidYMid">
      <path
         style="fill:none;stroke:context-stroke;stroke-width:1;stroke-linecap:butt"
         d="M 3,-3 0,0 3,3"
         transform="rotate(180,0.125,0)"
         sodipodi:nodetypes="ccc"
         id="path21" />
    </marker>
    <marker
       style="overflow:visible"
       id="marker16"
       refX="0"
       refY="0"
       orient="auto-start-reverse"
       inkscape:stockid="Wide arrow"
       markerWidth="1"
       markerHeight="1"
       viewBox="0 0 1 1"
       inkscape:isstock="true"
       inkscape:collect="always"
       preserveAspectRatio="xMidYMid">
      <path
         style="fill:none;stroke:context-stroke;stroke-width:1;stroke-linecap:butt"
         d="M 3,-3 0,0 3,3"
         transform="rotate(180,0.125,0)"
         sodipodi:nodetypes="ccc"
         id="path16" />
    </marker>
    <marker
       style="overflow:visible"
       id="ArrowWide"
       refX="0"
       refY="0"
       orient="auto-start-reverse"
       inkscape:stockid="Wide arrow"
       markerWidth="1"
       markerHeight="1"
       viewBox="0 0 1 1"
       inkscape:isstock="true"
       inkscape:collect="always"
       preserveAspectRatio="xMidYMid">
      <path
         style="fill:none;stroke:context-stroke;stroke-width:1;stroke-linecap:butt"
         d="M 3,-3 0,0 3,3"
         transform="rotate(180,0.125,0)"
         sodipodi:nodetypes="ccc"
         id="path1" />
    </marker>
    <rect
       x="172.82741"
       y="80.566162"
       width="124.09788"
       height="89.662338"
       id="rect5" />
    <rect
       x="151.38641"
       y="81.865616"
       width="114.35197"
       height="52.627895"
       id="rect4" />
    <rect
       x="325.51328"
       y="30.537174"
       width="135.79297"
       height="53.277622"
       id="rect3" />
    <rect
       x="103.95634"
       y="24.039904"
       width="191.01978"
       height="87.063431"
       id="rect2" />
    <rect
       x="73.419167"
       y="107.8547"
       width="39.633354"
       height="19.491814"
       id="rect1" />
    <marker
       style="overflow:visible"
       id="ArrowWide-4"
       refX="0"
       refY="0"
       orient="auto-start-reverse"
       inkscape:stockid="Wide arrow"
       markerWidth="1"
       markerHeight="1"
       viewBox="0 0 1 1"
       inkscape:isstock="true"
       inkscape:collect="always"
       preserveAspectRatio="xMidYMid">
      <path
         style="fill:none;stroke:context-stroke;stroke-width:1;stroke-linecap:butt"
         d="M 3,-3 0,0 3,3"
         transform="rotate(180,0.125,0)"
         sodipodi:nodetypes="ccc"
         id="path1-62" />
    </marker>
    <marker
       style="overflow:visible"
       id="marker16-6"
       refX="0"
       refY="0"
       orient="auto-start-reverse"
       inkscape:stockid="Wide arrow"
       markerWidth="1"
       markerHeight="1"
       viewBox="0 0 1 1"
       inkscape:isstock="true"
       inkscape:collect="always"
       preserveAspectRatio="xMidYMid">
      <path
         style="fill:none;stroke:context-stroke;stroke-width:1;stroke-linecap:butt"
         d="M 3,-3 0,0 3,3"
         transform="rotate(180,0.125,0)"
         sodipodi:nodetypes="ccc"
         id="path16-7" />
    </marker>
  </defs>
  <g
     inkscape:label="Layer 1"
     inkscape:groupmode="layer"
     id="layer1"
     transform="translate(-29.08216,-7.0765291)">
    <rect
       style="fill:#ffffff;stroke:#000000;stroke-width:0.21;stroke-miterlimit:2.61313"
       id="rect6-9"
       width="20.971828"
       height="9.4548836"
       x="67.118141"
       y="8.2066116"
       ry="1.9226753" />
    <text
       xml:space="preserve"
       transform="matrix(0.26458333,0,0,0.26458333,25.772376,2.235077)"
       id="text2"
       style="font-style:normal;font-variant:normal;font-weight:normal;font-stretch:normal;font-size:16px;line-height:2;font-family:serif;-inkscape-font-specification:serif;text-align:center;letter-spacing:1px;writing-mode:lr-tb;direction:ltr;white-space:pre;shape-inside:url(#rect2);display:inline;fill:#000000;stroke:none;stroke-width:0.793701;stroke-miterlimit:2.61313"
       x="95.509888"
       y="0"><tspan
         x="171.51527"
         y="44.597065"
         id="tspan1">Site C
</tspan></text>
    <rect
       style="fill:#ffffff;stroke:#000000;stroke-width:0.21;stroke-miterlimit:2.61313"
       id="rect6-9-2-2"
       width="20.971828"
       height="9.4548836"
       x="96.058121"
       y="24.099619"
       ry="1.9226753" />
    <text
       xml:space="preserve"
       transform="matrix(0.26458333,0,0,0.26458333,2.4817835,16.846964)"
       id="text3"
       style="font-style:normal;font-variant:normal;font-weight:normal;font-stretch:normal;font-size:16px;line-height:2;font-family:serif;-inkscape-font-specification:serif;text-align:center;letter-spacing:1px;writing-mode:lr-tb;direction:ltr;white-space:pre;shape-inside:url(#rect3);display:inline;fill:#000000;stroke:none;stroke-width:0.793701;stroke-miterlimit:2.61313"
       x="67.896484"
       y="0"><tspan
         x="369.59016"
         y="51.095112"
         id="tspan2">Site B</tspan></text>
    <rect
       style="fill:#ffffff;stroke:#000000;stroke-width:0.21;stroke-miterlimit:2.61313"
       id="rect6-9-2"
       width="20.971828"
       height="9.4548836"
       x="37.930504"
       y="24.099617"
       ry="1.9226753" />
    <text
       xml:space="preserve"
       transform="matrix(0.26458333,0,0,0.26458333,-13.829709,3.6100459)"
       id="text5"
       style="font-style:normal;font-variant:normal;font-weight:normal;font-stretch:normal;font-size:16px;line-height:2;font-family:serif;-inkscape-font-specification:serif;text-align:center;letter-spacing:1px;writing-mode:lr-tb;direction:ltr;white-space:pre;shape-inside:url(#rect5);display:inline;fill:#000000;stroke:none;stroke-width:0.793701;stroke-miterlimit:2.61313"
       x="62.048939"
       y="0"><tspan
         x="210.64896"
         y="101.12441"
         id="tspan3">Site A</tspan></text>
    <g
       fill="none"
       stroke="currentColor"
       stroke-linecap="round"
       stroke-linejoin="round"
       stroke-width="3"
       id="g2-5"
       transform="matrix(0.25596616,0,0,0.25596616,110.74105,44.595218)"
       inkscape:transform-center-x="-0.03888489"
       inkscape:transform-center-y="-0.15264369">
      <path
         d="M 45,24 C 45,35.598 35.598,45 24,45 12.402,45 3,35.598 3,24 3,12.402 12.402,3 24,3 35.598,3 45,12.402 45,24"
         id="path1-6-66" />
      <path
         d="M 23.906,3 C 22.9,13.629 13.974,21.951 3.094,21.999 m 41.812,0 C 34.026,21.95 25.099,13.629 24.094,3 M 16,24 v 2 m 16,-2 v 2 m -1,8 c -3.062,4 -10.937,4 -14,0"
         id="path2-5-4" />
    </g>
    <path
       style="fill:none;stroke:#999999;stroke-width:0.61;stroke-linecap:butt;stroke-linejoin:bevel;stroke-miterlimit:2.61313;stroke-dasharray:none;marker-start:url(#marker21);marker-end:url(#marker22)"
       d="m 36.195724,44.219066 c 2.213392,-7.24641 8.403296,-1.820107 8.846772,-9.182047"
       id="path8"
       sodipodi:nodetypes="cc" />
    <path
       style="fill:none;stroke:#999999;stroke-width:0.61;stroke-linecap:butt;stroke-linejoin:bevel;stroke-miterlimit:2.61313;stroke-dasharray:none;marker-start:url(#marker21);marker-end:url(#marker22)"
       d="m 50.907847,34.492168 c -0.817292,5.797658 3.604275,7.302941 3.414754,15.532758"
       id="path9"
       sodipodi:nodetypes="cc" />
    <path
       style="fill:none;stroke:#999999;stroke-width:0.61;stroke-linecap:butt;stroke-linejoin:bevel;stroke-miterlimit:2.61313;stroke-dasharray:none;marker-start:url(#marker21);marker-end:url(#marker22)"
       d="m 55.752831,34.693204 c 2.026015,6.872036 7.086884,10.578937 14.214076,11.811598"
       id="path10"
       sodipodi:nodetypes="cc" />
    <path
       style="fill:none;stroke:#999999;stroke-width:0.61;stroke-linecap:butt;stroke-linejoin:bevel;stroke-miterlimit:2.61313;stroke-dasharray:none;marker-start:url(#marker21);marker-end:url(#marker22)"
       d="m 84.681387,46.73648 c 4.684186,0.223709 5.819611,1.179536 9.20959,3.438706"
       id="path11"
       sodipodi:nodetypes="cc" />
    <path
       style="fill:none;stroke:#999999;stroke-width:0.61;stroke-linecap:butt;stroke-linejoin:bevel;stroke-miterlimit:2.61313;stroke-dasharray:none;marker-start:url(#marker21);marker-end:url(#marker22)"
       d="m 102.02535,46.542886 c -0.0696,-5.108366 1.41126,-6.900939 2.47357,-11.132922"
       id="path12"
       sodipodi:nodetypes="cc" />
    <path
       style="fill:none;stroke:#999999;stroke-width:0.61;stroke-linecap:butt;stroke-linejoin:bevel;stroke-miterlimit:2.61313;stroke-dasharray:none;marker-start:url(#marker21);marker-end:url(#marker22)"
       d="m 116.17631,44.566112 c 0.19586,-4.637435 -3.30768,-6.553163 -6.81148,-9.499962"
       id="path13"
       sodipodi:nodetypes="cc" />
    <path
       style="fill:none;stroke:#999999;stroke-width:0.61;stroke-linecap:butt;stroke-linejoin:bevel;stroke-miterlimit:2.61313;stroke-dasharray:none;marker-start:url(#ArrowWide);marker-end:url(#marker16)"
       d="M 47.682232,22.694591 C 46.672836,13.462814 60.435909,10.988548 64.95786,12.508179"
       id="path14"
       sodipodi:nodetypes="cc" />
    <path
       style="fill:none;stroke:#999999;stroke-width:0.61;stroke-linecap:butt;stroke-linejoin:bevel;stroke-miterlimit:2.61313;stroke-dasharray:none;marker-start:url(#ArrowWide-4);marker-end:url(#marker16-6)"
       d="m 60.248399,28.778874 c 3.987806,-3.099099 26.689635,-4.087122 33.439119,0.485173"
       id="path14-9"
       sodipodi:nodetypes="cc" />
    <path
       style="fill:none;stroke:#999999;stroke-width:0.61;stroke-linecap:butt;stroke-linejoin:bevel;stroke-miterlimit:2.61313;stroke-dasharray:none;marker-start:url(#ArrowWide);marker-end:url(#marker16)"
       d="M 106.48919,23.350217 C 106.3568,18.280206 96.858439,10.93758 89.988575,12.680086"
       id="path15"
       sodipodi:nodetypes="cc" />
    <g
       fill="none"
       stroke="currentColor"
       stroke-linecap="round"
       stroke-linejoin="round"
       stroke-width="3"
       id="g2"
       transform="matrix(0.25596616,0,0,0.25596616,29.5793,45.684776)"
       inkscape:transform-center-x="-0.03888489"
       inkscape:transform-center-y="-0.15264369">
      <path
         d="M 45,24 C 45,35.598 35.598,45 24,45 12.402,45 3,35.598 3,24 3,12.402 12.402,3 24,3 35.598,3 45,12.402 45,24"
         id="path1-6" />
      <path
         d="M 23.906,3 C 22.9,13.629 13.974,21.951 3.094,21.999 m 41.812,0 C 34.026,21.95 25.099,13.629 24.094,3 M 16,24 v 2 m 16,-2 v 2 m -1,8 c -3.062,4 -10.937,4 -14,0"
         id="path2-5" />
    </g>
    <g
       id="g20"
       transform="translate(15.447079,-18.536495)">
      <g
         fill="none"
         stroke="currentColor"
         stroke-linecap="round"
         stroke-linejoin="round"
         stroke-width="3"
         id="g2-1"
         transform="matrix(0.25596616,0,0,0.25596616,33.042324,68.641599)"
         inkscape:transform-center-x="-0.03888489"
         inkscape:transform-center-y="-0.15264369">
        <path
           d="M 45,24 C 45,35.598 35.598,45 24,45 12.402,45 3,35.598 3,24 3,12.402 12.402,3 24,3 35.598,3 45,12.402 45,24"
           id="path1-6-0"
           sodipodi:nodetypes="csssc" />
        <path
           d="M 44.906,21.999 C 34.026,21.95 25.099,13.629 24.094,3 31.481693,4.228919 38.844802,5.7364655 44.906,21.999 Z"
           id="path20"
           style="fill:#000000" />
        <path
           d="M 23.906,3 C 22.9,13.629 13.974,21.951 3.094,21.999 7.0969565,8.4930789 16.07177,7.140586 23.906,3 Z"
           id="path19"
           style="fill:#000000" />
        <path
           d="m 31,34 c -3.062,4 -10.937,4 -14,0"
           id="path18" />
        <path
           d="m 32,24 v 2"
           id="path17" />
        <path
           d="m 16,24 v 2"
           id="path2-5-5" />
      </g>
    </g>
    <g
       id="g22">
      <g
         id="g20-5"
         transform="translate(37.953821,-27.735935)">
        <g
           fill="none"
           stroke="currentColor"
           stroke-linecap="round"
           stroke-linejoin="round"
           stroke-width="3"
           id="g2-1-0"
           transform="matrix(0.25596616,0,0,0.25596616,33.042324,68.641599)"
           inkscape:transform-center-x="-0.03888489"
           inkscape:transform-center-y="-0.15264369">
          <path
             d="M 45,24 C 45,35.598 35.598,45 24,45 12.402,45 3,35.598 3,24 3,12.402 12.402,3 24,3 35.598,3 45,12.402 45,24"
             id="path1-6-0-6"
             sodipodi:nodetypes="csssc" />
          <path
             d="M 44.906,21.999 C 34.026,21.95 25.099,13.629 24.094,3 31.481693,4.228919 38.844802,5.7364655 44.906,21.999 Z"
             id="path20-4"
             style="fill:#000000" />
          <path
             d="M 23.906,3 C 22.9,13.629 13.974,21.951 3.094,21.999 7.0969565,8.4930789 16.07177,7.140586 23.906,3 Z"
             id="path19-6"
             style="fill:#000000" />
          <path
             d="m 31,34 c -3.062,4 -10.937,4 -14,0"
             id="path18-2" />
          <path
             d="m 32,24 v 2"
             id="path17-5" />
          <path
             d="m 16,24 v 2"
             id="path2-5-5-8" />
        </g>
      </g>
    </g>
    <g
       fill="none"
       stroke="currentColor"
       stroke-linecap="round"
       stroke-linejoin="round"
       stroke-width="3"
       id="g2-9"
       transform="matrix(0.25596616,0,0,0.25596616,94.0723,47.505633)"
       inkscape:transform-center-x="-0.03888489"
       inkscape:transform-center-y="-0.15264369">
      <path
         d="M 45,24 C 45,35.598 35.598,45 24,45 12.402,45 3,35.598 3,24 3,12.402 12.402,3 24,3 35.598,3 45,12.402 45,24"
         id="path1-6-6" />
      <path
         d="m 29.72455,13.182463 c -9.849252,6.10961 -17.164294,6.233534 -24.30313,2.707059 M 44.906,21.999 C 39.533649,21.368145 34.19072,16.890879 30.005065,13.244139 M 16,24 v 2 m 16,-2 v 2 m -1,8 c -3.062,4 -10.937,4 -14,0"
         id="path2-5-9"
         sodipodi:nodetypes="cccccccccc" />
    </g>
  </g>
</svg>
