<?xml version="1.0" encoding="UTF-8" standalone="no"?>
<!-- Created with Inkscape (http://www.inkscape.org/) -->

<svg
   width="119.54023mm"
   height="71.790802mm"
   viewBox="0 0 119.54024 71.790803"
   version="1.1"
   id="svg1"
   sodipodi:docname="traditional.svg"
   inkscape:version="1.4.3 (0d15f75042, 2025-12-25)"
   xmlns:inkscape="http://www.inkscape.org/namespaces/inkscape"
   xmlns:sodipodi="http://sodipodi.sourceforge.net/DTD/sodipodi-0.dtd"
   xmlns="http://www.w3.org/2000/svg"
   xmlns:svg="http://www.w3.org/2000/svg">
  <sodipodi:namedview
     id="namedview1"
     pagecolor="#ffffff"
     bordercolor="#000000"
     borderopacity="0.25"
     inkscape:showpageshadow="2"
     inkscape:pageopacity="0.0"
     inkscape:pagecheckerboard="0"
     inkscape:deskcolor="#d1d1d1"
     inkscape:document-units="mm"
     showguides="false"
     inkscape:zoom="1.1672593"
     inkscape:cx="217.1754"
     inkscape:cy="236.02297"
     inkscape:window-width="1896"
     inkscape:window-height="1034"
     inkscape:window-x="0"
     inkscape:window-y="0"
     inkscape:window-maximized="0"
     inkscape:current-layer="layer1">
    <inkscape:page
       x="0"
       y="0"
       width="119.54024"
       height="71.790802"
       id="page21"
       margin="0"
       bleed="0" />
  </sodipodi:namedview>
  <defs
     id="defs1">
    <marker
       style="overflow:visible"
       id="marker5"
       refX="0"
       refY="0"
       orient="auto-start-reverse"
       inkscape:stockid="Wide arrow"
       markerWidth="1"
       markerHeight="1"
       viewBox="0 0 1 1"
       inkscape:isstock="true"
       inkscape:collect="always"
       preserveAspectRatio="xMidYMid">
      <path
         style="fill:none;stroke:context-stroke;stroke-width:1;stroke-linecap:butt"
         d="M 3,-3 0,0 3,3"
         transform="rotate(180,0.125,0)"
         sodipodi:nodetypes="ccc"
         id="path5" />
    </marker>
    <marker
       style="overflow:visible"
       id="ArrowWide"
       refX="0"
       refY="0"
       orient="auto-start-reverse"
       inkscape:stockid="Wide arrow"
       markerWidth="1"
       markerHeight="1"
       viewBox="0 0 1 1"
       inkscape:isstock="true"
       inkscape:collect="always"
       preserveAspectRatio="xMidYMid">
      <path
         style="fill:none;stroke:context-stroke;stroke-width:1;stroke-linecap:butt"
         d="M 3,-3 0,0 3,3"
         transform="rotate(180,0.125,0)"
         sodipodi:nodetypes="ccc"
         id="path4" />
    </marker>
    <rect
       x="424.96024"
       y="183.36247"
       width="22.034975"
       height="20.461048"
       id="rect3" />
    <rect
       x="102.50259"
       y="111.74463"
       width="99.141853"
       height="76.456848"
       id="rect18" />
    <rect
       x="479.74573"
       y="21.844814"
       width="148.71278"
       height="52.09148"
       id="rect16" />
    <rect
       x="140.34731"
       y="215.61421"
       width="71.305489"
       height="23.202579"
       id="rect2" />
    <rect
       x="140.34731"
       y="215.61421"
       width="58.289406"
       height="24.334412"
       id="rect2-0" />
    <rect
       x="102.50259"
       y="111.74463"
       width="99.141853"
       height="76.456848"
       id="rect18-6" />
  </defs>
  <g
     inkscape:label="Layer 1"
     inkscape:groupmode="layer"
     id="layer1"
     transform="translate(-74.879127,-0.29871647)">
    <rect
       style="fill:#f4e3d7;stroke:none;stroke-width:0.61;stroke-miterlimit:2.61313;stroke-dasharray:none"
       id="rect1-19-5-3"
       width="78.545723"
       height="47.837311"
       x="109.10835"
       y="12.891772"
       ry="0" />
    <path
       id="rect1-19-5"
       style="fill:#f4e3d7;stroke:#000000;stroke-width:0.61;stroke-miterlimit:2.61313"
       d="M 162.36503,60.729083 H 109.10835 V 12.891772 h 78.54573 v 47.837311 h -6.55707"
       sodipodi:nodetypes="cccccc" />
    <rect
       style="fill:#ffffff;stroke:#000000;stroke-width:0.233903;stroke-miterlimit:2.61313"
       id="rect1-19"
       width="25.900389"
       height="32.599998"
       x="106.14869"
       y="23.054804"
       ry="1.9655573" />
    <g
       id="g16"
       transform="translate(108.69448,-31.298368)">
      <rect
         style="fill:#ffffff;stroke:#000000;stroke-width:0.302913;stroke-miterlimit:2.61313"
         id="rect1"
         width="38.883114"
         height="32.681763"
         x="35.703556"
         y="54.349567"
         ry="2.6992373" />
      <path
         id="rect1-1"
         style="fill:none;stroke:#000000;stroke-width:0.181949;stroke-miterlimit:2.61313"
         d="M 54.509315,54.289082 V 86.970881 Z"
         sodipodi:nodetypes="ccc" />
      <path
         id="rect1-3"
         style="fill:#ffffff;stroke:#000000;stroke-width:0.209509;stroke-miterlimit:2.61313"
         d="M 35.902207,64.357934 H 74.440345 Z"
         sodipodi:nodetypes="ccc" />
      <text
         xml:space="preserve"
         transform="matrix(0.26458333,0,0,0.26458333,-1.4973209,0.18657702)"
         id="text1"
         style="font-style:normal;font-variant:normal;font-weight:normal;font-stretch:normal;font-size:13.3333px;line-height:1.6;font-family:serif;-inkscape-font-specification:serif;text-align:center;letter-spacing:1px;writing-mode:lr-tb;direction:ltr;white-space:pre;shape-inside:url(#rect2);shape-padding:0;display:inline;fill:#000000;stroke:none;stroke-width:0.896;stroke-miterlimit:2.61313"
         x="35.652744"
         y="0"><tspan
           x="160.00669"
           y="230.07825"
           id="tspan1">User</tspan></text>
      <text
         xml:space="preserve"
         transform="matrix(0.26458333,0,0,0.26458333,19.734586,0.18657702)"
         id="text1-6"
         style="font-size:13.3333px;line-height:1.6;font-family:'Noto Sans';-inkscape-font-specification:'Noto Sans';text-align:center;letter-spacing:1px;writing-mode:lr-tb;direction:ltr;white-space:pre;shape-inside:url(#rect2-0);display:inline;fill:#000000;stroke:none;stroke-width:0.896;stroke-miterlimit:2.61313"
         x="29.144703"
         y="0"><tspan
           x="147.46556"
           y="230.07825"
           id="tspan3"><tspan
             style="font-family:serif;-inkscape-font-specification:serif"
             id="tspan2">Secret</tspan></tspan></text>
      <text
         xml:space="preserve"
         style="font-size:3.52777px;line-height:2;font-family:'Noto Sans';-inkscape-font-specification:'Noto Sans';letter-spacing:0.264583px;writing-mode:lr-tb;direction:ltr;white-space:pre;inline-size:18.282;display:inline;fill:#000000;stroke:none;stroke-width:0.237067;stroke-miterlimit:2.61313"
         x="36.983826"
         y="56.748455"
         id="text4"
         transform="translate(2.2459813,13.176424)"><tspan
           x="36.983826"
           y="56.748455"
           id="tspan7"><tspan
             style="font-family:serif;-inkscape-font-specification:serif"
             id="tspan5">Maria
</tspan></tspan><tspan
           x="36.983826"
           y="63.803992"
           id="tspan10"><tspan
             style="font-family:serif;-inkscape-font-specification:serif"
             id="tspan9">Aisha
</tspan></tspan><tspan
           x="36.983826"
           y="70.859534"
           id="tspan13"><tspan
             dx="0 0 0 -0.26458299"
             style="font-family:serif;-inkscape-font-specification:serif"
             id="tspan12">Kofi</tspan></tspan></text>
      <text
         xml:space="preserve"
         style="font-size:3.52777px;line-height:2;font-family:'Noto Sans';-inkscape-font-specification:'Noto Sans';letter-spacing:0.264583px;writing-mode:lr-tb;direction:ltr;white-space:pre;inline-size:27.6518;display:inline;fill:#000000;stroke:none;stroke-width:0.237067;stroke-miterlimit:2.61313"
         x="36.983826"
         y="56.748455"
         id="text4-9"
         transform="translate(18.466077,13.176424)"><tspan
           x="36.983826"
           y="56.748455"
           id="tspan18"><tspan
             style="font-family:serif;-inkscape-font-specification:serif"
             id="tspan17">483-22-91
</tspan></tspan><tspan
           x="36.983826"
           y="63.803992"
           id="tspan20"><tspan
             style="font-family:serif;-inkscape-font-specification:serif"
             id="tspan19">544-41-06
</tspan></tspan><tspan
           x="36.983826"
           y="70.859534"
           id="tspan22"><tspan
             style="font-family:serif;-inkscape-font-specification:serif"
             id="tspan21">314-97-15
</tspan></tspan></text>
      <text
         xml:space="preserve"
         transform="matrix(0.26458333,0,0,0.26458333,-33.815353,31.597084)"
         id="text2"
         style="font-size:16px;line-height:2;font-family:'Noto Serif';-inkscape-font-specification:'Noto Serif';letter-spacing:1px;writing-mode:lr-tb;direction:ltr;white-space:pre;shape-inside:url(#rect3);display:inline;fill:#ffffff;stroke:#000000;stroke-width:0.793701;stroke-miterlimit:2.61313" />
    </g>
    <text
       xml:space="preserve"
       transform="matrix(0.26458333,0,0,0.26458333,-18.153599,0.763564)"
       id="text16"
       style="font-style:normal;font-variant:normal;font-weight:normal;font-stretch:normal;font-size:13.3333px;line-height:2;font-family:serif;-inkscape-font-specification:serif;letter-spacing:1px;writing-mode:lr-tb;direction:ltr;white-space:pre;shape-inside:url(#rect16);display:inline;fill:#000000;stroke:none;stroke-width:0.896;stroke-miterlimit:2.61313"><tspan
         x="479.74609"
         y="38.977329"
         id="tspan23">Server</tspan></text>
    <text
       xml:space="preserve"
       transform="matrix(0.26458333,0,0,0.26458333,78.780252,-12.540939)"
       id="text18"
       style="font-style:normal;font-variant:normal;font-weight:normal;font-stretch:normal;font-size:13.3333px;line-height:2;font-family:serif;-inkscape-font-specification:serif;text-align:end;letter-spacing:1px;writing-mode:lr-tb;direction:ltr;white-space:pre;shape-inside:url(#rect18);display:inline;fill:#000000;stroke:none;stroke-width:0.896;stroke-miterlimit:2.61313"
       x="99.141853"
       y="0"><tspan
         x="118.1514"
         y="128.87577"
         id="tspan24">Application</tspan></text>
    <text
       xml:space="preserve"
       transform="matrix(0.26458333,0,0,0.26458333,130.18951,-12.37527)"
       id="text18-6"
       style="font-style:normal;font-variant:normal;font-weight:normal;font-stretch:normal;font-size:13.3333px;line-height:2;font-family:serif;-inkscape-font-specification:serif;text-align:end;letter-spacing:1px;writing-mode:lr-tb;direction:ltr;white-space:pre;shape-inside:url(#rect18-6);display:inline;fill:#000000;stroke:none;stroke-width:0.896;stroke-miterlimit:2.61313"
       x="99.141853"
       y="0"><tspan
         x="136.4047"
         y="128.87577"
         id="tspan25">Database</tspan></text>
    <g
       fill="currentColor"
       fill-rule="evenodd"
       clip-rule="evenodd"
       id="g3"
       transform="matrix(0.75824278,0,0,0.75824278,110.31839,30.256199)">
      <path
         d="M 9.2,21.601 A 3,3 0 0 1 8.622,21.083 l -0.18,-0.11 0.838,-0.898 0.758,-0.837 a 0.31,0.31 0 0 0 0.09,-0.439 0.32,0.32 0 0 0 -0.45,-0.09 l -1.046,0.688 c -0.23,0.17 -0.648,0.37 -0.997,0.609 a 1.8,1.8 0 0 0 -0.449,0.528 0.77,0.77 0 0 0 0,0.668 c 0.151,0.299 0.358,0.566 0.608,0.788 q 0.32,0.245 0.678,0.429 c 0.489,0.229 0.997,0.379 1.496,0.608 a 0.37,0.37 0 0 0 0.498,-0.13 0.35,0.35 0 0 0 -0.13,-0.498 C 10.018,22.079 9.579,21.86 9.2,21.601 m 3.959,-4.218 a 0.33,0.33 0 0 0 -0.41,0.19 c -0.328,0.638 -0.697,1.236 -0.996,1.884 a 9,9 0 0 0 -0.36,0.838 c -0.099,0.289 -0.199,0.578 -0.278,0.867 -0.2,0.698 -0.34,1.396 -0.479,2.104 a 0.36,0.36 0 0 0 0.24,0.449 0.37,0.37 0 0 0 0.458,-0.24 c 0.28,-0.668 0.608,-1.296 0.897,-1.994 0.19,-0.448 0.37,-0.887 0.519,-1.346 0.26,-0.778 0.409,-1.575 0.598,-2.363 a 0.32,0.32 0 0 0 -0.19,-0.389 m 2.942,2.134 a 9,9 0 0 0 -0.997,-0.528 8,8 0 0 0 -0.997,-0.39 0.32,0.32 0 0 0 -0.429,0.16 0.31,0.31 0 0 0 0.16,0.419 q 0.413,0.263 0.787,0.578 0.376,0.306 0.708,0.658 l 0.12,0.06 q -0.17,0.27 -0.379,0.509 l -0.488,0.558 -0.858,0.868 a 0.37,0.37 0 0 0 -0.11,0.508 0.38,0.38 0 0 0 0.509,0.1 l 1.117,-0.738 0.658,-0.499 q 0.325,-0.3 0.588,-0.658 c 0.146,-0.21 0.238,-0.453 0.27,-0.708 A 0.6,0.6 0 0 0 16.599,19.896 3,3 0 0 0 16.1,19.517 M 14.196,8.45 a 0.618,0.618 0 0 0 -0.688,-0.709 0.678,0.678 0 0 0 0,1.346 0.608,0.608 0 0 0 0.688,-0.638 m -3.64,0.1 a 0.617,0.617 0 0 0 -0.688,-0.708 0.678,0.678 0 0 0 0,1.346 0.63,0.63 0 0 0 0.688,-0.638 m 0.02,3.191 c 0.214,0.125 0.452,0.203 0.698,0.229 a 1.9,1.9 0 0 0 0.708,-0.05 2.4,2.4 0 0 0 1.316,-0.867 0.37,0.37 0 0 0 0,-0.519 0.37,0.37 0 0 0 -0.518,0 1.74,1.74 0 0 1 -1.356,0.21 2.4,2.4 0 0 1 -0.37,-0.07 1.3,1.3 0 0 1 -0.807,-0.499 0.33,0.33 0 0 0 -0.429,-0.17 0.31,0.31 0 0 0 -0.17,0.42 1.9,1.9 0 0 0 0.928,1.316 m -5.863,6.87 q -0.09,0.59 -0.09,1.186 -0.03,0.593 0,1.187 c 0.085,0.92 0.252,1.831 0.499,2.722 a 0.36,0.36 0 0 0 0.419,0.289 0.35,0.35 0 0 0 0.289,-0.419 c 0,-0.498 -0.07,-0.997 -0.08,-1.505 -0.01,-0.509 0,-0.998 0,-1.496 v -3.27 c 0,-0.778 -0.837,-0.07 -0.997,0.498 0.04,0.329 0.01,0.479 -0.04,0.808 m 10.43,-4.158 a 0.38,0.38 0 0 0 -0.489,0.18 2.69,2.69 0 0 1 -2.173,1.226 3.7,3.7 0 0 1 -1.526,-0.13 2.5,2.5 0 0 1 -0.887,-0.439 1.7,1.7 0 0 1 -0.44,-0.568 c 0,-0.09 -0.139,-0.17 -0.408,0 0,0 -0.339,0.359 -0.289,0.488 0.086,0.298 0.235,0.574 0.439,0.808 a 3.23,3.23 0 0 0 1.525,0.997 3.86,3.86 0 0 0 1.755,0.07 3.51,3.51 0 0 0 2.682,-2.114 0.36,0.36 0 0 0 -0.19,-0.518 m 2.952,4.268 c 0,0.598 0.14,1.196 0.22,1.794 0.13,0.887 0.289,1.765 0.399,2.672 a 0.359,0.359 0 1 0 0.717,0 c 0,-0.907 0.08,-1.794 0,-2.692 0,-0.389 0,-0.768 -0.09,-1.146 a 9,9 0 0 0 -0.179,-1.137 7,7 0 0 0 -0.17,-0.738 c -0.099,-0.399 -0.857,-1.117 -1.056,-0.588 0.06,0.787 0.06,1.037 0.16,1.834"
         id="path1" />
      <path
         d="m 23.17,21.67 a 11,11 0 0 0 -0.619,-1.814 12.7,12.7 0 0 0 -1.675,-2.692 c -0.679,-0.82 -1.46,-1.55 -2.323,-2.174 a 10,10 0 0 0 -3.939,-1.665 5,5 0 0 0 0.898,-0.997 7,7 0 0 0 1.136,-3.988 0.369,0.369 0 1 0 -0.737,0 6.2,6.2 0 0 1 -0.908,2.931 3.64,3.64 0 0 1 -2.114,1.725 3.9,3.9 0 0 1 -2.383,-0.13 A 4.6,4.6 0 0 1 9.071,12.069 4.36,4.36 0 0 1 7.525,8.299 0.31,0.31 0 0 0 7.255,7.941 0.33,0.33 0 0 0 6.887,8.22 5.14,5.14 0 0 0 8.333,12.896 q 0.315,0.3 0.678,0.539 a 10.3,10.3 0 0 0 -3.54,1.555 12.6,12.6 0 0 0 -2.323,2.154 12.7,12.7 0 0 0 -1.675,2.692 11,11 0 0 0 -0.619,1.815 6.2,6.2 0 0 0 -0.199,1.934 0.32,0.32 0 0 0 0.33,0.38 0.32,0.32 0 0 0 0.308,-0.33 5.3,5.3 0 0 1 0.34,-1.685 9.7,9.7 0 0 1 0.737,-1.595 13,13 0 0 1 1.665,-2.294 c 0.29,-0.349 1.426,-1.336 1.945,-1.864 q 0.556,-0.479 1.166,-0.888 a 22,22 0 0 1 3.121,-1.246 5,5 0 0 0 2.991,0.12 c 0.1,0 0.19,-0.12 0.29,-0.16 q 0.723,0.132 1.425,0.349 a 9.5,9.5 0 0 1 1.995,0.927 15,15 0 0 1 3.02,2.752 16.6,16.6 0 0 1 1.636,2.254 q 0.441,0.764 0.738,1.595 c 0.203,0.54 0.318,1.109 0.339,1.685 a 0.32,0.32 0 0 0 0.432,0.309 0.32,0.32 0 0 0 0.206,-0.289 6.2,6.2 0 0 0 -0.17,-1.934"
         id="path2" />
      <path
         d="M 4.733,8.2 A 10,10 0 0 1 6.259,7.85 C 7.046,7.721 7.854,7.651 8.642,7.572 c 0.997,-0.12 1.874,-0.18 2.792,-0.24 0.918,-0.06 1.864,-0.12 2.792,-0.11 1.262,0.01 2.522,0.112 3.769,0.31 a 0.369,0.369 0 0 0 0.16,-0.718 c -0.22,-0.06 -0.43,-0.08 -0.649,-0.13 0.093,-0.324 0.14,-0.66 0.14,-0.997 A 6,6 0 0 0 17.266,3.982 7,7 0 0 0 16.639,2.746 5,5 0 0 0 15.701,1.689 4.2,4.2 0 0 0 13.508,0.752 2.7,2.7 0 0 0 12.34,0.083 3.8,3.8 0 0 0 10.106,0.283 3.3,3.3 0 0 0 9.11,0.89 1.6,1.6 0 0 0 8.96,1.1 5.24,5.24 0 0 0 6.877,2.426 Q 6.437,2.878 6.119,3.423 a 5.4,5.4 0 0 0 -0.508,1.186 5.5,5.5 0 0 0 0,2.583 10,10 0 0 0 -1.067,0.369 0.33,0.33 0 0 0 -0.22,0.448 0.31,0.31 0 0 0 0.41,0.19 m 10.53,-5.235 c 0.35,0.446 0.654,0.928 0.907,1.436 q 0.3,0.528 0.489,1.107 c 0.09,0.324 0.113,0.663 0.07,0.997 q -1.448,-0.3 -2.922,-0.399 c 0.09,-0.32 0.2,-0.648 0.259,-0.997 q 0.152,-0.732 0.24,-1.476 a 7.3,7.3 0 0 0 0,-1.236 2.5,2.5 0 0 0 -0.15,-0.599 c 0.12,0.08 0.24,0.16 0.349,0.25 q 0.421,0.423 0.758,0.917 M 10.566,1.42 a 2.6,2.6 0 0 1 1.446,-0.15 1.54,1.54 0 0 1 1.077,0.798 c 0.111,0.214 0.179,0.447 0.2,0.688 q 0.036,0.439 0,0.877 c 0,0.519 -0.05,0.997 -0.1,1.416 q -0.075,0.505 -0.21,0.997 -1.081,-0.06 -2.163,0 c -0.37,0 -0.748,0.11 -1.117,0.17 C 9.609,5.836 9.529,5.468 9.479,5.099 Q 9.41,4.379 9.419,3.653 a 7,7 0 0 1 0,-0.997 Q 9.461,2.383 9.589,2.137 A 1,1 0 0 1 9.938,1.759 3,3 0 0 1 10.566,1.419 M 7.186,4.071 Q 7.436,3.596 7.764,3.173 8.042,2.806 8.383,2.495 8.375,3.097 8.473,3.692 8.569,4.502 8.761,5.297 8.893,5.844 9.081,6.374 L 8.482,6.464 C 7.744,6.644 7.027,6.803 6.299,7.012 6.323,6.328 6.468,5.652 6.727,5.018 Q 6.933,4.532 7.186,4.071"
         id="path3" />
    </g>
    <path
       fill="currentColor"
       d="m 172.48587,61.410347 a 0.55929384,0.55929384 0 0 1 -0.55929,-0.559286 l 0.001,-0.0302 c 0.0169,-0.41444 0.39485,-0.69018 0.71309,-0.84901 0.3037,-0.15157 0.60404,-0.22762 0.61634,-0.23098 a 0.27964693,0.27964693 0 1 1 0.13529,0.5425 c -0.15389,0.0391 -0.33669,0.10569 -0.49777,0.18686 a 0.55817527,0.55817527 0 0 1 -0.40939,0.940186 z m -3.14379,-1.126966 a 0.27964693,0.27964693 0 1 1 0.13529,-0.54252 c 0.0127,0.004 0.31264,0.0788 0.61634,0.23098 0.31767,0.15875 0.69521,0.43402 0.71309,0.84901 l 10e-4,0.0302 a 0.55929384,0.55929384 0 1 1 -0.9687,-0.38088 2.5727516,2.5727516 0 0 0 -0.49775,-0.18686 z m 2.02522,3.643796 a 1.9575285,1.9575285 0 0 0 1.679,-0.95025 l 0.71924,0.43178 c -0.48883,0.81321 -1.37978,1.3574 -2.39824,1.3574 -1.01849,0 -1.90889,-0.54419 -2.39827,-1.3574 l 0.71926,-0.43178 a 1.9575285,1.9575285 0 0 0 1.67901,0.95025 m 4.47433,-5.872596 c 0,-0.39766 -0.0833,-0.77574 -0.23265,-1.11857 a 2.807655,2.807655 0 0 1 -1.52465,1.47821 c -0.75336,-0.57665 -1.69466,-0.91892 -2.71649,-0.91892 -1.02182,0 -1.96312,0.34284 -2.71648,0.91892 a 2.7964693,2.7964693 0 0 1 -1.52463,-1.47821 2.7964693,2.7964693 0 0 0 -0.23267,1.11857 c 0,0.64319 0.21701,1.23492 0.58167,1.70752 a 4.4743509,4.4743509 0 1 0 7.78537,0 2.7852834,2.7852834 0 0 0 0.58165,-1.70752 z m -4.47433,7.550479 a 3.6354171,3.6354171 0 1 1 0,-7.270829 3.6354171,3.6354171 0 0 1 0,7.270829"
       id="path1-1"
       style="stroke-width:0.559293" />
    <g
       fill="none"
       stroke="currentColor"
       stroke-linecap="round"
       stroke-linejoin="round"
       stroke-width="3"
       id="g2"
       transform="matrix(0.25596616,0,0,0.25596616,79.448371,32.748871)"
       inkscape:transform-center-x="-0.03888489"
       inkscape:transform-center-y="-0.15264369">
      <path
         d="M 45,24 C 45,35.598 35.598,45 24,45 12.402,45 3,35.598 3,24 3,12.402 12.402,3 24,3 35.598,3 45,12.402 45,24"
         id="path1-6" />
      <path
         d="M 23.906,3 C 22.9,13.629 13.974,21.951 3.094,21.999 m 41.812,0 C 34.026,21.95 25.099,13.629 24.094,3 M 16,24 v 2 m 16,-2 v 2 m -1,8 c -3.062,4 -10.937,4 -14,0"
         id="path2-5" />
    </g>
    <path
       style="fill:#ffffff;stroke:#999999;stroke-width:0.61;stroke-miterlimit:2.61313;stroke-dasharray:none;marker-start:url(#ArrowWide);marker-end:url(#marker5)"
       d="m 133.55062,39.354804 h 9.62396"
       id="path19"
       sodipodi:nodetypes="cc" />
    <path
       style="fill:#ffffff;stroke:#999999;stroke-width:0.61;stroke-miterlimit:2.61313;stroke-dasharray:none;marker-start:url(#ArrowWide);marker-end:url(#marker5)"
       d="M 94.231935,39.354803 H 104.89506"
       id="path19-4"
       sodipodi:nodetypes="cc" />
  </g>
</svg>
